<svg width="126" height="26" viewBox="0 0 126 26" fill="none" xmlns="http://www.w3.org/2000/svg">
<path d="M33.3199 15.3048L31.8485 17.1238C33.3376 18.453 35.3585 19.24 37.344 19.24C40.5171 19.24 42.5735 17.7009 42.5735 15.3223C42.5735 13.4335 41.3326 12.2791 38.8685 11.8769L36.5285 11.4921C35.2522 11.2997 34.7558 10.915 34.7558 10.1629C34.7558 9.3234 35.6599 8.78122 37.0249 8.78122C38.3721 8.78122 39.613 9.25344 40.9426 10.2503L42.3253 8.36147C40.9603 7.2946 38.9926 6.64749 37.2021 6.64749C34.2062 6.64749 32.3094 8.06415 32.3094 10.3553C32.3094 12.1217 33.4262 13.276 35.5535 13.6258L38.0176 14.0456C39.4889 14.273 40.0562 14.7102 40.0562 15.5497C40.0562 16.4766 39.0635 17.0888 37.5212 17.0888C36.0321 17.0888 34.7558 16.5466 33.3199 15.3048Z" fill="#0053CD"/>
<path d="M46.6833 13.9581H52.0724L52.5155 11.8244H46.6833V9.02608H53.2069L53.6501 6.82239H44.1128V19.0651H53.2778L53.721 16.8614H46.6833V13.9581Z" fill="#0053CD"/>
<path d="M58.109 6.82239H55.5386V19.0651H64.4554L64.8985 16.8264H58.109V6.82239Z" fill="#0053CD"/>
<path d="M69.2405 13.9581H74.6295L75.0727 11.8244H69.2405V9.02608H75.7641L76.2072 6.82239H66.67V19.0651H75.835L76.2782 16.8614H69.2405V13.9581Z" fill="#0053CD"/>
<path d="M84.3003 16.8964C81.978 16.8964 80.2585 15.1649 80.2585 12.9437C80.2585 10.6526 81.9957 8.95612 84.2294 8.95612C85.5589 8.95612 86.7821 9.55076 87.6507 10.6176L89.388 8.92114C88.2357 7.52197 86.2148 6.63 84.2294 6.63C80.5066 6.63 77.6171 9.39336 77.6171 12.9437C77.6171 16.5466 80.5421 19.24 84.2294 19.24C86.1616 19.24 88.1293 18.3655 89.3171 16.9838L87.633 15.3398C86.7644 16.3367 85.5943 16.8964 84.3003 16.8964Z" fill="#0053CD"/>
<path d="M96.7762 19.0651V9.06105H100.676L101.119 6.82239H90.0221V9.06105H94.2057V19.0651H96.7762Z" fill="#0053CD"/>
<path d="M107.222 6.82239H102.453V19.0651H107.222C110.945 19.0651 113.781 16.3892 113.781 12.9787C113.781 9.49829 110.945 6.82239 107.222 6.82239ZM105.024 16.8089V9.07854H107.204C109.385 9.07854 111.122 10.7401 111.122 12.9787C111.122 15.1125 109.438 16.8089 107.204 16.8089H105.024Z" fill="#0053CD"/>
<path d="M121.373 6.82239H115.541V19.0651H121.657C124.263 19.0651 126 17.631 126 15.5147C126 14.3254 125.238 13.311 124.05 12.7514C124.99 12.1742 125.575 11.2473 125.575 10.1804C125.575 8.20406 123.855 6.82239 121.373 6.82239ZM118.111 16.9664V13.8007H121.462C122.65 13.8007 123.412 14.4479 123.412 15.3748C123.412 16.3542 122.65 16.9664 121.462 16.9664H118.111ZM118.111 11.8244V8.92114H121.214C122.295 8.92114 123.022 9.4808 123.022 10.3728C123.022 11.2647 122.295 11.8244 121.214 11.8244H118.111Z" fill="#0053CD"/>
<path d="M26.596 13C26.596 20.1797 20.7169 26 13.4647 26C6.21246 26 0.333374 20.1797 0.333374 13C0.333374 5.8203 6.21246 0 13.4647 0C20.7169 0 26.596 5.8203 26.596 13Z" fill="white"/>
<path d="M16.6955 25.6036C22.3855 24.1784 26.596 19.076 26.596 13C26.596 5.8203 20.7169 0 13.4647 0C6.21246 0 0.333374 5.8203 0.333374 13C0.333374 18.413 3.67508 23.0532 8.42753 25.0092C11.5314 22.7642 20.7545 15.7785 19.4629 12.9282C18.811 11.4898 16.9903 12.7432 14.8107 14.2438C11.8097 16.3098 8.12828 18.8443 5.88073 15.4656C3.49035 11.8723 12.0486 4.19265 12.0486 4.19265L16.2453 5.37965C16.2453 5.37965 6.2995 12.4602 8.81185 14.3256C9.86479 15.1075 11.6535 14.0692 13.6561 12.9066C16.432 11.2953 19.619 9.44522 21.8281 11.8722C24.9484 15.3004 18.9494 22.9633 16.6955 25.6036Z" fill="#0053CD"/>
</svg>
